<svg id="e5y1peSVb6W1" xmlns="http://www.w3.org/2000/svg" xmlns:xlink="http://www.w3.org/1999/xlink" viewBox="0 0 34 34" shape-rendering="geometricPrecision" text-rendering="geometricPrecision"><path d="M606.054771,422.960683v187.49337q-99.944813-18.594384-99.944813-99.944813c0-81.350429,99.944813-112.341069,99.944813-87.548557Z" transform="matrix(-.078465 0 0-.078462 65.219334 65.221961)" fill="#8A8B8B" stroke="#8A8B8B" stroke-width="3.84"/><path d="M606.054771,422.960683v187.49337q-99.944813-18.594384-99.944813-99.944813c0-81.350429,99.944813-112.341069,99.944813-87.548557Z" transform="matrix(0-.076992 0.076991 0-30.664716 63.98588)" fill="#8A8B8B" stroke="#8A8B8B" stroke-width="3.84"/><path d="M606.054771,422.960683v187.49337q-99.944813-18.594384-99.944813-99.944813c0-81.350429,99.944813-112.341069,99.944813-87.548557Z" transform="matrix(.076992 0 0 0.076991-30.326615-30.606978)" fill="#8A8B8B" stroke="#8A8B8B" stroke-width="3.84"/><path d="M606.054771,422.960683v187.49337q-99.944813-18.594384-99.944813-99.944813c0-81.350429,99.944813-112.341069,99.944813-87.548557Z" transform="matrix(0 0.076992-.076991 0 64.664716-29.979808)" fill="#8A8B8B" stroke="#8A8B8B" stroke-width="3.84"/></svg>
